<svg width="88" height="88" viewBox="0 0 88 88" fill="none" xmlns="http://www.w3.org/2000/svg">
<path fill-rule="evenodd" clip-rule="evenodd" d="M0 43.977C0 68.2683 19.6266 88 43.8128 88V86.1686C20.6114 86.1686 1.83279 67.2835 1.83279 43.977C1.83279 20.7165 20.6114 1.74209 43.8128 1.74209C66.9668 1.74209 85.8332 20.7165 85.8332 43.977C85.8332 67.2835 66.9668 86.1686 43.8128 86.1686V88C67.9501 88 87.6199 68.2683 87.6199 43.977C87.6199 19.736 67.9501 0 43.8128 0C19.6266 0 0 19.736 0 43.977Z" fill="#006097"/>
<path fill-rule="evenodd" clip-rule="evenodd" d="M12.1601 43.977C12.1601 61.5246 26.33 75.8111 43.8128 75.8111V74.6075C27.0024 74.6075 13.3666 60.8997 13.3666 43.977C13.3666 27.1003 27.0024 13.3925 43.8128 13.3925C60.6175 13.3925 74.2533 27.1003 74.2533 43.977C74.2533 60.8997 60.6175 74.6075 43.8128 74.6075V75.8111C61.2452 75.8111 75.4598 61.5246 75.4598 43.977C75.4598 26.4754 61.2452 12.1889 43.8128 12.1889C26.33 12.1889 12.1601 26.4754 12.1601 43.977Z" fill="#006097"/>
<path fill-rule="evenodd" clip-rule="evenodd" d="M33.4827 18.9312C33.3934 19.2911 33.261 19.6467 32.9917 20.0931C32.6332 20.4487 32.364 20.7165 32.0098 20.9828L32.364 21.7833C32.9917 21.3384 33.3934 20.8504 33.7533 20.3609L35.2694 23.7039L36.5234 23.1295L34.5567 18.5281L33.4827 18.9312Z" fill="#006097"/>
<path fill-rule="evenodd" clip-rule="evenodd" d="M40.0537 21.4305V22.28C39.5613 22.3232 39.2042 22.28 38.9379 22.1461C38.4901 21.9676 38.3101 21.694 38.087 21.2952L39.4749 20.9828C39.5613 21.2074 39.652 21.2952 39.7859 21.3384C39.8291 21.4305 39.9198 21.4305 40.0537 21.4305ZM40.0537 17.0998V17.8585C39.9615 17.8585 39.9198 17.8585 39.8291 17.9464C39.5613 17.9464 39.341 18.0831 39.2042 18.2185C39.0703 18.3524 38.9825 18.6619 39.0703 18.9312C39.0703 19.2911 39.2042 19.5128 39.4274 19.6467C39.5613 19.736 39.8291 19.7748 40.0537 19.736V20.4918C39.4274 20.5797 38.9379 20.4918 38.4469 20.2269C37.9992 20.0009 37.7314 19.6467 37.6407 19.1543C37.5975 18.6619 37.7314 18.2185 38.1331 17.8154C38.4901 17.4511 39.0703 17.2366 39.7859 17.0998H40.0537ZM41.6647 17.4511C41.2616 17.1459 40.68 17.0105 40.0537 17.0998V17.8585C40.1904 17.8585 40.4136 17.9464 40.6353 18.0831C40.8153 18.2185 40.9938 18.4373 41.037 18.708C41.037 19.0219 40.9938 19.1961 40.8153 19.4264C40.68 19.556 40.4136 19.736 40.1904 19.736H40.0537V20.4918C40.5461 20.4486 40.9938 20.2269 41.3048 19.8627C41.3048 20.4486 41.2616 20.8503 41.1277 21.0706C40.906 21.2952 40.68 21.4305 40.4136 21.4305C40.2797 21.4766 40.1444 21.4766 40.0537 21.4305V22.28H40.4136C41.1709 22.1461 41.8404 21.7833 42.245 21.3384C42.7388 20.8503 42.8698 20.1348 42.7388 19.1961C42.602 18.3524 42.245 17.7246 41.6647 17.4511Z" fill="#006097"/>
<path fill-rule="evenodd" clip-rule="evenodd" d="M46.4029 16.9645V17.7247C46.269 17.8154 46.2229 17.8154 46.1351 17.8154C45.9983 17.8585 45.8644 17.9924 45.7766 18.1724C45.6427 18.4373 45.5535 18.888 45.5088 19.4264C45.4196 20.0009 45.4196 20.4486 45.5088 20.6286C45.5535 20.8503 45.6427 20.9828 45.7766 21.1152C45.9105 21.2074 46.0444 21.2952 46.2229 21.2952H46.4029V22.0583H46.1351C45.4196 21.9676 44.8811 21.7833 44.4362 21.2952C44.0777 20.9396 43.8531 20.2269 44.0345 19.1961C44.0777 18.3063 44.4362 17.6815 44.9257 17.3244C45.3749 17.0105 45.7766 16.8766 46.4029 16.9645ZM46.7139 16.9645H46.4029V17.7247C46.4922 17.7247 46.5368 17.7247 46.6261 17.8154C46.76 17.8154 46.8939 17.8154 47.0738 17.9464C47.2063 17.9924 47.2495 18.1724 47.3416 18.3524C47.3863 18.5712 47.3863 19.0651 47.3416 19.6467C47.2495 20.2269 47.2063 20.6286 47.0738 20.8503C46.9846 21.0706 46.8507 21.2074 46.7139 21.2074C46.6261 21.2952 46.4922 21.2952 46.4029 21.2952V22.0583C46.9846 22.1461 47.4741 21.9676 47.8772 21.7833C48.4128 21.4305 48.7281 20.7164 48.8174 19.7748C48.9541 18.888 48.8174 18.1724 48.3264 17.6815C47.965 17.3244 47.3863 17.0105 46.7139 16.9645Z" fill="#006097"/>
<path fill-rule="evenodd" clip-rule="evenodd" d="M51.0058 17.8154L50.6487 18.5712L53.6895 19.8627C52.8415 20.1348 52.123 20.4919 51.4982 20.9828C50.8748 21.5674 50.427 22.1461 50.1563 22.771L51.4536 23.2619C51.5874 22.8602 51.8552 22.5032 52.2598 21.9676C52.7032 21.5674 53.1971 21.2074 53.7773 20.8504C54.3143 20.5797 54.896 20.3608 55.2977 20.227L55.6115 19.556L51.0058 17.8154Z" fill="#006097"/>
<path fill-rule="evenodd" clip-rule="evenodd" d="M18.2819 19.1961C17.9263 18.7973 17.0797 17.9464 16.1813 17.3245C15.3808 16.6535 14.5285 16.2547 14.0361 16.6089C13.5451 16.9645 13.679 17.1459 13.6373 17.5894C13.5005 17.8586 13.2773 18.0832 13.0527 18.3064C12.7849 18.5281 12.1601 18.9312 11.8477 19.3747C11.8016 19.6468 11.3538 19.5129 11.3106 19.736C11.2199 19.9131 11.086 20.0931 11.1739 20.2716C11.4445 21.2074 13.4112 23.1295 13.4112 23.1295C13.4112 23.1295 14.3514 24.0668 14.3514 23.979C14.9762 24.6916 15.6903 25.2718 15.8718 25.4057C16.2274 25.4475 16.6751 25.4057 16.583 25.2718C16.2274 24.5995 15.2426 23.979 14.8423 23.3959C14.2607 22.6386 13.6373 22.0583 13.0527 21.3385C12.9217 21.2074 12.7849 20.9397 12.651 20.7165C12.5618 20.6287 12.5618 20.4487 12.651 20.227C12.6957 20.0931 12.9217 19.8627 13.1434 19.5561C13.4112 19.0651 13.859 18.5713 14.0361 18.0832C14.2146 17.9464 14.4824 17.7247 14.4824 17.7247C14.707 17.5015 15.1101 17.5894 15.3347 17.6815C15.604 17.7247 16.4059 18.4374 17.3892 19.4265C18.0587 20.0931 18.2416 20.0009 18.4158 20.7597C18.5094 21.0707 18.148 20.9828 18.148 21.1153C18.017 21.4767 18.017 21.7833 18.7325 21.9676C18.865 22.0583 19.1342 22.1865 19.2667 22.0583C19.3559 21.9676 19.2667 21.8294 19.222 21.5674C18.9082 20.7165 19.0881 20.3609 18.2819 19.1961Z" fill="#006097"/>
<path fill-rule="evenodd" clip-rule="evenodd" d="M14.8869 19.9131C14.8869 19.736 14.7502 19.5129 14.5285 19.4265C14.2146 19.3746 13.679 20.1348 13.7683 20.2716C13.7683 20.4919 13.859 20.7165 13.9929 20.6287C14.1268 20.6287 14.9762 20.2716 14.8869 19.9131Z" fill="#006097"/>
<path fill-rule="evenodd" clip-rule="evenodd" d="M16.3181 20.5797C15.9596 20.6286 15.5579 20.7165 15.4701 20.7165C15.2009 21.0706 15.1102 21.2952 14.707 21.694C14.7502 21.694 14.6163 22.0583 14.7502 22.1864C14.8424 22.411 15.067 22.5464 15.3348 22.6803C15.5579 22.771 16.0935 22.902 16.3181 22.3232C16.4059 22.0583 16.0474 21.9172 15.8718 21.8294V21.694H16.0935C16.0935 21.6523 16.583 21.8294 16.7198 21.8294C16.8998 21.4766 17.1676 20.9828 16.8998 20.5797C16.7198 20.3608 16.583 20.4919 16.3181 20.5797Z" fill="#006097"/>
<path fill-rule="evenodd" clip-rule="evenodd" d="M31.205 6.43131C31.2914 6.3838 31.2914 6.3838 31.385 6.29741C31.0711 5.94035 30.6695 5.31263 30.5356 5.3587C30.442 5.44652 30.3988 5.44652 30.3081 5.67112C30.1771 5.89716 30.2188 6.07137 30.6695 6.3838C30.8897 6.43131 31.0236 6.43131 31.205 6.43131Z" fill="#006097"/>
<path fill-rule="evenodd" clip-rule="evenodd" d="M34.4228 6.91508C34.466 7.01298 34.5567 7.144 34.5567 7.2779C34.466 7.58888 34.3321 7.72278 34.2429 7.85667C34.109 8.08271 34.1982 8.34763 34.3321 8.43689C34.8245 8.57367 34.9138 7.76453 34.9138 7.09793C34.9138 6.78694 34.8245 6.51627 34.8245 6.29743C34.9138 6.07139 35.314 5.89718 35.4062 5.94038C35.4508 6.1621 35.5372 6.51627 35.7618 6.87909C35.8957 7.22895 36.2556 7.58888 36.3895 7.63495C37.0158 7.85667 36.7451 7.36572 36.7451 6.91508C36.7451 6.87909 36.6573 6.87909 36.6112 6.87909C36.4341 6.87909 36.3003 6.91508 36.1635 6.78694C36.1203 6.74231 35.674 5.80936 35.674 5.67114C35.7618 5.53725 36.1203 5.35872 36.1635 5.18019C36.2556 4.99734 36.1635 4.73387 36.1203 4.73387C35.9389 4.82457 34.9584 5.94038 34.8245 6.07139C34.6935 6.1621 34.5567 6.1621 34.466 6.07139C34.4228 6.02532 34.3321 5.53725 35.0923 4.50783C35.314 4.15365 35.2694 4.15365 35.0923 4.01688C34.9584 3.97369 34.7784 4.15365 34.5567 4.15365C34.3321 4.15365 34.1982 4.1047 34.1982 4.01688C34.109 3.88586 34.1982 3.6627 34.109 3.52881C33.9751 3.16887 33.3934 3.39491 33.1271 3.75053C32.8578 4.1047 32.0098 5.71434 32.364 6.02532C32.7239 6.20529 33.0839 5.44654 33.3934 5.08949C33.7533 4.73387 34.109 4.73387 34.1982 4.73387C34.5567 4.73387 33.7533 5.94038 34.0643 6.87909C34.0643 7.09793 33.7073 7.36572 33.4827 7.22895C33.4827 7.22895 33.1271 6.65305 32.8578 6.51627C32.7239 6.51627 32.4993 7.09793 32.7239 7.36572C32.8578 7.72278 33.5734 7.58888 32.4993 9.02143C32.2301 9.28346 32.2301 9.69235 32.2301 10.0005C32.2301 10.4021 32.364 10.7592 32.6332 10.7592C32.9917 10.847 33.2178 10.4021 33.261 10.2654C33.3934 10.1372 33.6166 9.55845 33.7073 8.9264C33.7533 8.48584 33.6166 8.08271 33.7533 7.72278C33.9304 7.45355 34.109 7.22895 34.4228 6.91508Z" fill="#006097"/>
<path fill-rule="evenodd" clip-rule="evenodd" d="M30.9344 7.99205C31.2915 7.5011 31.1576 7.09797 30.5788 6.74235C30.3988 6.65309 30.5356 7.14404 30.5356 7.5011C30.5788 7.58892 30.5356 7.99205 30.5356 8.12595C30.442 8.30447 30.5356 8.79543 30.9344 7.99205Z" fill="#006097"/>
<path fill-rule="evenodd" clip-rule="evenodd" d="M31.6528 11.6087V10.6253C31.5621 10.4021 31.1575 9.86656 30.8004 8.79539C30.7097 8.57367 30.4419 8.57367 30.4419 8.79539C30.4419 8.92641 30.8897 10.2654 30.9343 11.1163C31.0236 11.8347 31.0711 12.5459 31.1575 13.2586C31.205 13.6603 31.8759 14.4665 32.0098 14.3773C32.1423 14.3283 32.2301 14.1959 32.0545 13.5264C31.9177 12.9059 31.7838 12.2767 31.6528 11.6087Z" fill="#006097"/>
<path fill-rule="evenodd" clip-rule="evenodd" d="M39.4273 5.94038C39.3409 5.89719 39.2042 6.02533 39.0703 6.02533C38.49 6.0714 37.9991 6.1621 37.5974 6.0714C37.4606 6.0714 37.2835 6.02533 37.2835 5.89719C37.2389 5.80936 37.2835 5.67115 37.2835 5.44655C37.2835 5.31265 37.2389 5.08949 37.105 5.08949C36.879 5.08949 36.6572 5.31265 36.6112 5.44655C36.4341 5.58044 36.3895 5.67115 36.3895 6.0714C36.3002 6.29744 36.3002 6.43133 36.4341 6.51628C36.6112 6.65305 36.9697 6.65305 37.2835 6.65305C37.9545 6.74232 38.7118 6.87909 38.9824 6.74232C39.2934 6.65305 39.5612 6.43133 39.6519 6.38382C39.698 6.20529 39.698 6.02533 39.4273 5.94038Z" fill="#006097"/>
<path fill-rule="evenodd" clip-rule="evenodd" d="M37.105 7.9459C36.8789 7.85664 36.7451 7.99198 36.5233 8.21801C36.3002 8.43686 36.4341 9.3295 36.1634 9.69231C36.1634 9.64624 36.0295 9.55842 35.9388 9.3295C35.8956 9.19848 35.8956 9.02139 35.6739 8.92637C35.5371 8.8371 35.5371 9.06458 35.4061 9.19848C35.1815 9.50946 35.0476 9.69231 34.9583 9.77294C34.5998 9.91115 34.7784 9.19848 34.4659 9.02139C34.332 8.79535 34.0643 9.19848 34.1089 9.55842C34.1089 9.77294 34.2428 10.1372 34.2428 10.3532C34.332 10.5821 34.332 10.8931 34.332 10.9838C34.4659 11.3408 34.5566 11.7857 34.7784 12.0578C34.9583 12.3227 35.2693 12.2767 35.0922 11.6086C35.0922 11.2501 34.7784 10.6253 34.9583 10.2653C35.0922 10.0465 35.4061 10.0465 35.5371 10.225C35.6739 10.4021 35.6739 10.847 35.8049 10.8931C35.9388 11.1162 36.1634 10.847 36.2555 10.6253C36.3002 10.5821 36.3002 10.2653 36.4341 9.91115C36.4341 9.69231 36.6112 9.55842 36.6572 9.3295C36.7451 9.06458 36.7451 8.8371 36.9697 8.8371C37.2389 8.79535 37.3713 9.15529 37.5052 9.3295C37.5052 9.55842 37.5974 9.69231 37.6406 10.0004C37.7313 10.225 37.6406 10.8931 37.6406 11.3408C37.5974 11.564 37.5974 11.7008 37.5974 11.7857C37.7313 11.921 37.8652 11.9671 37.9991 10.9838C38.0869 9.91115 38.133 9.91115 37.9991 9.15529C37.9991 8.57363 37.3713 7.99197 37.105 7.9459Z" fill="#006097"/>
<path fill-rule="evenodd" clip-rule="evenodd" d="M58.1628 6.20529C57.8028 6.38382 56.998 6.91508 56.5085 7.58888C55.9729 8.21805 55.8793 8.43689 55.6533 8.30444C55.4776 8.30444 55.5223 8.30444 55.1638 8.08272C54.7621 7.94594 54.4482 7.94594 54.1372 7.85668C53.8234 7.76453 53.4217 8.08272 53.3339 8.30444C53.1971 8.57367 53.3339 8.57367 53.5527 8.70756C53.6895 8.83714 54.4482 9.06462 54.6743 9.06462C54.8067 9.02143 55.0299 9.06462 54.9867 9.19852C54.9867 9.28346 54.0494 10.0005 53.6895 10.2654C53.3339 10.4914 52.6183 10.9838 52.4844 11.2041C52.2137 11.4748 52.5722 11.7008 52.7954 11.7008C52.9264 11.7008 53.2849 11.4287 53.8234 11.2502C54.4482 11.1163 54.896 10.847 55.1638 10.6253C55.4776 10.4021 56.0132 9.77297 56.1471 9.69235C56.3256 9.64628 57.489 10.4914 57.8028 10.4914C57.9353 10.4021 58.1628 10.2251 58.3384 10.0465C58.563 9.86656 58.4262 9.64628 58.1628 9.64628C57.8475 9.55845 57.2212 9.32953 56.8641 9.15532C56.5085 8.92641 56.8166 8.79539 56.998 8.57367C57.1751 8.34763 58.0274 7.58888 58.4262 7.144C58.9186 6.74231 59.0108 6.43133 58.9186 6.38382C58.8308 6.1621 58.5184 6.1621 58.1628 6.20529Z" fill="#006097"/>
<path fill-rule="evenodd" clip-rule="evenodd" d="M56.4566 11.2502C56.3256 11.2502 56.1471 11.6087 56.0132 11.7857C55.9729 11.9211 56.1039 12.1889 56.1039 12.4567C56.1471 12.7705 56.5085 13.3925 56.7273 13.5264C56.8641 13.6171 56.998 13.3925 57.3118 12.9937C57.5767 12.5459 57.5767 12.5459 57.2211 12.0579C56.9505 11.6087 56.7273 11.2502 56.4566 11.2502Z" fill="#006097"/>
<path fill-rule="evenodd" clip-rule="evenodd" d="M77.9189 19.736C77.785 19.4265 76.8909 19.1544 76.6649 19.0219C76.3078 18.888 76.5756 18.662 76.5756 18.5713C76.5339 18.4374 76.2215 18.5281 76.0861 18.3524C75.9522 18.2185 75.9522 17.9925 76.0415 17.9464C76.0415 17.8586 76.0861 17.8154 75.9522 17.6815C75.8183 17.5015 75.8183 17.6815 75.3706 17.6815C74.9689 17.6815 74.9689 17.7247 74.9689 17.8154C74.9689 17.9464 74.9689 18.0832 74.7443 18.1724C74.4765 18.2185 74.2533 18.3063 74.1209 18.5281C73.8948 18.7973 73.7609 18.888 73.7609 18.9312C73.7609 19.0219 73.8948 19.0651 73.9855 19.0651C74.1209 19.0651 74.6104 18.7973 74.8321 18.708C74.9689 18.662 75.4598 18.5281 75.5505 18.5713C75.6844 18.662 75.6844 18.888 75.5937 18.888C75.5505 18.9312 75.4598 18.9312 75.3288 18.888C75.1028 18.888 74.5226 19.0651 74.3397 19.1961C74.1209 19.3746 74.0287 19.556 74.1626 19.6467C74.3397 19.8627 75.5505 19.8627 75.8183 19.7749C75.8615 19.7749 75.9522 19.4265 76.3078 19.4265C76.5339 19.4265 76.8017 19.6467 76.9356 19.736C77.0666 19.8627 77.2048 19.8627 77.1587 20.0009C77.1587 20.1348 76.9356 20.1348 76.7095 20.227C76.5756 20.227 76.5339 20.1348 76.5339 20.0009C76.5339 19.8627 76.4432 19.7749 76.2215 19.8627C76.0415 19.8627 75.7276 20.0931 75.4598 20.1348C75.1028 20.227 74.3887 20.2716 74.2533 20.2716C74.1209 20.2716 73.4053 19.1961 73.1793 19.0651C73.0497 18.888 73.1347 18.7973 73.1347 18.662C73.1347 18.5713 74.4765 17.8154 74.8767 17.5894C75.3706 17.3633 75.4598 17.1459 75.4598 16.9645C75.3706 16.6535 74.8767 16.7889 74.6104 17.0106C74.3397 17.1459 73.6702 17.6815 73.5363 17.8586C73.3593 17.9925 73.1347 18.3063 73.0008 18.2185C72.7776 18.1724 72.7776 17.7247 72.6898 17.5894C72.6437 17.4511 72.5098 17.4511 72.2852 17.4511C71.9713 17.5015 71.8374 17.8154 71.1708 18.1724C70.8541 18.3524 70.7231 18.3524 70.5892 18.5281C70.4985 18.5713 70.4985 18.7973 70.5892 18.888C70.7231 19.0219 71.0787 18.9312 71.3019 18.888C71.4818 18.888 71.6604 18.708 71.7943 18.662C71.8374 18.662 72.2852 19.1544 72.553 19.3746C72.8237 19.556 73.7609 20.7165 73.8948 20.7597C74.3887 21.0707 74.9689 21.9172 74.9689 21.9676C75.0121 22.0583 75.1028 22.1865 74.9689 22.28C74.7443 22.4111 74.7443 22.4111 74.7443 22.5464C74.8321 22.6385 75.3706 23.0373 75.5505 23.1295C75.7276 23.1295 76.2215 23.1295 76.3078 22.902C76.4432 22.8603 76.2215 22.6803 76.1754 22.5464C76.0415 22.4111 76.0415 22.0583 75.8183 21.9172C75.5505 21.7833 74.6104 20.6287 74.6104 20.6287C74.6104 20.5797 75.2367 20.4487 75.3706 20.4919C75.5505 20.5797 75.5505 20.8504 75.8183 20.9396C75.9522 20.9396 75.9522 20.8504 76.0861 20.8504C76.3078 20.7597 76.3078 20.8504 77.0234 20.8504C77.739 20.7597 77.785 20.7165 77.9189 20.4487C78.0528 20.2716 78.1406 20.0009 77.9189 19.736Z" fill="#006097"/>
<path fill-rule="evenodd" clip-rule="evenodd" d="M73.1792 21.4306C73.1346 21.2952 72.2851 20.3609 72.062 20.227C71.8374 20.1348 71.7035 20.1348 71.5696 20.227C71.4817 20.3609 71.3018 20.5797 71.214 20.6286C71.1708 20.7165 71.4357 20.9396 71.5696 20.9828C71.7035 21.1153 71.9281 21.4306 72.062 21.4767C72.2851 21.5674 72.5529 21.4767 72.5097 21.6941C72.5097 21.8294 72.062 22.1864 71.8374 22.1461C71.4357 22.1461 71.0786 21.4767 70.6309 21.1153C70.4984 20.9828 70.2292 20.9828 70.0967 20.9828C69.9628 20.8504 69.7828 20.9828 69.7828 21.0706C69.7828 21.2074 69.9628 21.3384 69.9628 21.4767C70.0074 21.6941 70.1413 21.7833 70.3645 21.9172C70.723 22.1461 71.0786 22.5032 71.214 22.6385C71.3018 22.771 71.4357 22.902 70.9879 23.1295C70.6309 23.3512 70.1413 23.4851 69.7368 23.3512C69.2905 23.1295 69.0212 22.8602 68.9766 22.5464C68.8873 22.3232 68.7549 22.6385 68.6627 22.8602C68.6195 23.0373 68.3949 23.3512 68.4439 23.4851C68.5288 23.6161 68.5288 23.7039 68.8873 23.8422C69.2473 23.8868 70.0967 24.1099 70.4552 24.0668C71.2139 23.9789 71.4817 23.3958 71.6603 23.3958C71.7035 23.3958 71.8374 23.6161 71.9713 23.7039C72.062 23.7529 72.2851 24.2006 72.5529 24.2006C72.7775 24.2006 73.0496 24.1099 72.9114 23.6161C72.8236 23.3958 72.6436 23.3958 72.3298 22.9913C72.3298 22.8602 72.5097 22.5464 72.5529 22.5464C72.6436 22.6385 73.5363 22.6385 73.6702 22.5464C73.7609 22.5032 73.8947 22.0583 73.8516 21.9676C73.8516 21.8294 73.2685 21.4767 73.1792 21.4306Z" fill="#006097"/>
<path fill-rule="evenodd" clip-rule="evenodd" d="M25.6173 42.9504C25.5266 43.0872 25.4374 43.175 25.3467 43.2643C24.6311 44.4247 23.6478 48.3077 23.9616 50.0944C24.2755 51.7458 24.4094 52.817 25.6173 54.2927V42.9504ZM25.6173 27.3249V30.9401C24.9018 31.611 24.1416 31.7449 24.4512 32.1869C24.6311 32.5454 25.0789 32.5036 25.6173 32.6807V35.134C25.3913 35.0462 25.125 35.0462 24.8572 35.0462C23.38 35.134 22.5305 35.8957 22.5305 36.5219C22.5305 37.1914 23.2461 44.6435 23.0244 45.8976C22.7983 47.1933 21.1887 51.3873 21.6811 53.4418C22.2627 55.4071 24.3201 57.2816 24.8111 57.2816C24.9896 57.237 25.3006 57.0988 25.6173 56.9649V64.381C23.9616 62.5554 20.7438 58.7991 19.7144 56.5661C18.2818 53.4879 19.222 51.6119 19.6266 48.4848C20.0715 45.3605 19.9376 40.3128 19.4898 37.5456C18.9988 33.7533 20.1175 33.4884 21.3255 32.279C22.4398 31.1661 23.6478 30.9401 23.9616 29.2887C24.0955 28.0807 23.2461 27.5437 23.1568 26.88C23.0661 26.3415 24.7233 26.6093 25.6173 27.3249ZM25.6173 30.9401V27.3249C25.7944 27.4588 25.973 27.6373 26.0622 27.8158C26.6424 28.7948 26.6856 29.866 25.8391 30.714C25.7944 30.8062 25.7052 30.8954 25.6173 30.9401ZM25.6173 35.134C26.4207 35.3169 26.9563 35.8957 27.358 36.0281V36.1217V33.9347C27.2673 33.7533 27.178 33.7087 27.047 33.5806C26.5546 32.996 26.0162 32.7729 25.6173 32.6807V35.134ZM25.6173 54.2927C25.7052 54.4295 25.7944 54.5173 25.9283 54.6483C26.33 55.0471 26.9102 55.3624 27.358 55.6302V51.9229C27.2673 51.7919 27.178 51.6536 27.178 51.6119C26.6856 50.7193 26.1529 49.0247 26.5114 47.0594C26.7792 45.1834 26.6424 44.5528 27.2673 44.203L27.358 44.154V41.1666C26.6424 41.8792 25.973 42.5041 25.6173 42.9504V54.2927ZM25.6173 64.381C26.2436 65.098 26.6424 65.4968 26.6424 65.4968C26.6424 65.4968 26.4207 66.2123 26.1529 66.7925C25.9283 67.4203 26.5114 67.5513 26.8253 67.5513C26.9102 67.5513 27.178 67.2835 27.358 66.9264V60.5858C26.6856 60.1827 26.1529 59.47 25.9283 58.8884C25.7944 58.3585 25.2128 57.9943 26.1529 57.7754C26.33 57.7754 26.8253 57.7754 27.358 57.8215V56.615C27.047 56.7028 26.6856 56.7028 26.4207 56.7028C26.104 56.746 25.8391 56.8367 25.6173 56.9649V64.381ZM27.6719 60.7672V66.2555C27.5826 66.3894 27.4487 66.6572 27.358 66.8372V60.5858C27.4487 60.678 27.5826 60.7197 27.6719 60.7672ZM27.6719 56.615V57.8647C27.5826 57.8647 27.4487 57.8647 27.358 57.8215V56.615H27.6719ZM27.6719 52.4628V55.8073L27.358 55.6302V51.9229C27.4487 52.1043 27.5826 52.2828 27.6719 52.4628ZM27.6719 40.8527V43.9337C27.5826 43.9769 27.4487 44.0662 27.358 44.154V41.1666L27.6719 40.8527ZM27.6719 34.4214V36.1217C27.5826 36.1649 27.4948 36.1217 27.358 36.1217V33.9347C27.4948 34.0672 27.5826 34.2457 27.6719 34.4214ZM32.2301 68.5793C32.9917 68.8917 33.7073 69.1149 34.2428 69.2488V64.8748C33.8412 64.7841 33.4827 64.5566 33.7533 63.8871C33.8412 63.579 34.0643 63.2206 34.2428 62.8621V60.678C33.7073 61.4828 32.8578 62.4575 32.2301 62.8621V68.5793ZM34.2428 37.3296C33.4827 37.3296 32.6332 37.3296 32.2301 37.2375V38.6182C32.8578 38.3922 33.7073 38.1762 34.2428 38.1762V37.3296ZM32.2301 51.3873C32.7239 49.5127 33.3934 47.4611 33.7073 46.3468C33.7533 46.2085 34.0643 46.2532 34.2428 46.1207V44.7818C34.1982 44.7818 34.1089 44.691 34.1982 44.5528C34.1982 44.514 34.2428 44.334 34.2428 44.203V41.3868V41.4315C34.0643 42.0146 33.8412 42.7244 33.5734 43.4399C33.2177 44.6911 33.6166 45.0495 32.59 45.2756H32.2301V46.3468C32.4993 46.3468 32.7239 46.3468 32.6332 46.3914C32.59 46.6102 32.4993 47.3272 32.2301 48.1738V51.3873ZM34.2428 55.0097C33.7533 54.9161 32.8578 55.0097 32.2301 55.0097V56.0751C32.59 56.1212 32.901 56.1212 33.127 56.209C33.6166 56.209 33.8412 56.2536 34.2428 57.0556V57.1477V55.0097ZM34.2428 69.2488V64.8748C34.466 64.918 34.7784 64.918 34.9584 64.918C35.0923 64.918 35.2694 65.0058 35.4062 65.0058V69.4244C35.0923 69.4244 34.8245 69.4244 34.5567 69.3366C34.466 69.3366 34.3321 69.2488 34.2428 69.2488ZM34.2428 44.203V41.3868C34.7784 39.9601 35.0923 38.9321 35.0923 38.3087C35.0923 38.1762 34.8245 38.0826 34.2428 38.1762V37.3296H35.4062V40.8527C35.0477 41.7885 34.5999 43.0872 34.2428 44.203ZM34.2428 46.1207C34.3321 46.1207 34.466 46.1207 34.5567 45.9825C34.5999 45.8544 34.6935 45.3605 34.5999 45.0495C34.5999 44.8278 34.4228 44.8278 34.2428 44.7818V46.1207ZM35.4062 55.9441V61.7506C35.0477 61.9694 34.5999 62.3697 34.2428 62.8621V60.678C34.5999 60.2288 34.8245 59.9149 34.8245 59.7392C34.9584 59.2454 34.5999 57.9943 34.2428 57.1477V55.0097C34.3321 55.0097 34.4228 55.0471 34.466 55.0471C34.9138 55.2285 35.0923 55.3624 35.4062 55.9441ZM35.4062 69.4244C35.9389 69.4705 36.5234 69.5597 36.9697 69.5597V65.0058C36.6112 65.2319 36.0296 65.098 35.4062 65.0058V69.4244ZM35.4062 40.8527C35.674 39.8722 35.8957 39.2474 35.9389 39.112C36.0296 38.8831 36.6112 38.9321 36.9697 38.9321V37.5456C36.7451 37.4146 36.1203 37.3296 35.4062 37.3296V40.8527ZM36.9697 58.6206C36.1635 58.7084 35.8957 58.7084 35.5847 57.1477C35.5372 56.5661 35.4508 56.209 35.4062 55.9441V61.7506C35.4508 61.6599 35.5847 61.6599 35.5847 61.6599C35.8957 61.6599 36.2556 62.8203 36.3895 63.353C36.5234 63.664 36.7912 64.0657 36.9697 64.4271V64.5163V60.7672C36.879 60.5412 36.7912 60.4058 36.9697 60.1827V58.6206ZM36.9697 43.5752C36.6573 44.2908 36.3002 45.0078 36.1635 45.3605C35.4508 47.2811 35.314 49.1125 35.7618 50.5393C36.1635 51.8811 36.6112 52.817 36.9697 53.4879V53.5757V43.5752ZM36.9697 69.5597V65.0058C37.1051 64.8748 37.1051 64.738 36.9697 64.5163V60.8075C37.0158 60.8997 37.1051 61.0336 37.1497 61.2539C37.3714 61.8787 37.6406 62.3236 37.9991 63.5301C38.3101 64.2932 38.4901 64.738 38.7118 64.918V71.882C38.3101 72.1973 37.7313 71.656 37.7313 71.656C37.7313 71.656 37.8652 71.2543 37.9545 70.9001C38.087 70.6741 38.087 70.4063 38.2223 70.1414C38.3562 69.6965 37.8652 69.6965 36.9697 69.5597ZM36.9697 38.9321C37.0158 38.9321 37.0158 38.9321 37.1051 38.8831C37.4607 38.7564 37.5974 37.9516 36.9697 37.5456V38.9321ZM38.7118 40.3128V44.154C38.2223 44.5528 38.087 45.8544 37.9991 46.6102C37.7745 48.132 38.2223 49.245 38.7118 50.1837V60.4519C38.5779 60.4058 38.4469 60.4058 38.3101 60.3137C37.4607 59.9149 37.3714 59.7393 37.0158 60.1827H36.9697V58.6206C37.0158 58.6206 37.0158 58.5327 37.1051 58.5327C37.9545 58.5327 38.624 58.5327 38.624 57.8215C38.624 57.1938 38.3562 55.9441 37.9991 55.4071C37.7313 54.9161 37.3714 54.3805 36.9697 53.5757V43.5752C37.2836 42.7704 37.6406 42.0146 37.8652 41.5654C38.133 40.9405 38.3562 40.7188 38.7118 40.3128ZM38.7118 33.7087V35.4061C38.4901 35.1801 38.3562 34.9195 38.4469 34.3321C38.4901 34.0672 38.5779 33.8455 38.7118 33.7087ZM38.7118 71.882C38.7118 71.8374 38.8025 71.8374 38.8025 71.8374C38.9379 71.6143 39.1135 71.1665 39.2042 70.6295C39.341 69.9629 39.4749 69.7858 39.4749 69.7858C39.4749 69.7858 40.4136 69.829 41.4848 69.9125V65.8567C41.3048 65.8078 41.1709 65.7199 41.1277 65.5846C40.6799 64.8748 41.037 63.9332 41.4848 62.7282V59.2454C41.037 59.3332 40.906 58.0404 40.906 57.3248C40.8153 56.7028 40.6353 56.615 40.7692 55.6302C40.7692 55.276 41.1277 55.4992 41.4848 55.7641V53.4418C40.7692 52.9955 39.9198 52.2828 39.4274 51.5241C39.2042 51.1685 38.9378 50.7193 38.7118 50.2297V50.1837V60.4519C39.341 60.8075 39.698 61.12 40.0536 61.2539C40.5014 61.4828 40.6353 61.7909 40.3243 63.042C39.9615 64.2932 39.7859 65.098 39.2935 65.1368C39.0703 65.1368 38.8457 65.1368 38.7118 64.918V71.882ZM41.4848 34.9569C41.1277 34.5581 40.906 34.1104 40.6353 33.9347C40.2797 33.6165 39.2042 33.0867 38.7118 33.7087V35.4061C39.0703 35.6739 39.652 35.6279 40.2797 35.8496C41.037 36.0281 41.3048 36.7465 41.1277 37.1007C40.5014 38.1762 39.7859 38.8831 39.1135 39.734C38.9379 40.0061 38.8025 40.1832 38.7118 40.3128V44.154C38.8025 44.0662 38.8025 43.9769 38.9378 43.9769C39.4749 43.8459 40.6799 45.3605 41.4848 45.8976V43.1304C40.9938 42.2334 40.4136 41.0327 40.906 39.9601C40.9938 39.6001 41.1709 39.292 41.4848 38.9321V34.9569ZM43.8531 48.8404V56.7907C43.676 56.7028 43.499 56.7907 43.3622 56.8367C43.0037 56.9649 42.8698 57.6358 42.602 58.8423C42.3788 60.0949 42.2449 60.0488 41.7525 61.7506C41.6647 62.0169 41.6215 62.3697 41.4848 62.6835V62.7282V59.2454C41.8893 59.2022 41.9786 57.9943 42.0232 57.4616C42.2449 56.615 42.3788 56.435 41.9786 56.1212C41.8893 56.0751 41.6647 55.9441 41.4848 55.7641V53.4418V53.4879C41.8893 53.7096 42.2449 53.8406 42.5127 53.8406C42.8266 53.8406 43.4514 50.941 43.8531 48.8404ZM43.8531 45.1374V46.3914C43.3176 46.2532 42.3342 46.3914 41.7525 46.1207C41.6647 46.0746 41.6215 45.9825 41.4848 45.8976V43.1304V43.2153C41.6647 43.6199 41.9786 43.9769 42.111 44.2908C42.4681 44.7818 43.1822 45.0495 43.8531 45.1374ZM41.4848 69.9125V65.8567V65.946C42.0232 66.1245 43.0037 65.9877 43.8531 65.8078V69.9629H43.7192C43.2283 69.9629 42.3342 69.9629 41.4848 69.9125ZM43.8531 36.0281V37.1914C43.499 37.3296 43.2283 37.4563 42.8698 37.6824C42.3788 38.0366 41.8893 38.4411 41.4848 38.9321V34.9569C41.8893 35.6279 42.3342 36.1649 42.602 36.1217C42.8698 36.1217 43.3622 36.0281 43.8531 36.0281ZM43.8531 69.9629C44.5701 69.9629 46.1351 69.9125 47.5662 69.9125H47.608V66.0756H47.5662C46.8939 66.2987 46.4922 66.1245 46.7139 65.7199C46.8507 65.455 47.2495 64.918 47.5662 64.738H47.608V62.9542C47.608 62.9542 47.5662 62.9542 47.5662 63.042C47.4741 63.664 45.9984 65.0058 45.1518 65.455C44.8811 65.4968 44.3455 65.7199 43.8531 65.8078V69.9629ZM47.608 57.3248L47.5662 57.2816C46.7139 56.2536 43.9438 54.6944 43.9438 54.6944C43.8531 54.5605 43.8531 54.4295 43.8531 54.2927V53.9356C43.9438 52.2339 45.1518 48.6691 45.3749 47.3272C45.3749 47.1041 45.4196 46.8363 45.5088 46.3914C45.6427 46.0746 46.5368 46.3914 46.354 45.1834C46.354 44.9156 46.1351 44.2908 46.1351 44.154C46.6261 42.5977 47.1185 40.8527 47.5662 39.6001L47.608 39.5123V35.3169H47.5662C46.7139 35.3169 45.9105 35.4061 45.2857 35.6739C44.8811 35.8496 44.3455 35.9878 43.8531 36.0281V37.1914C44.3455 37.0546 44.9257 36.8776 45.6427 36.6127C46.8507 36.2542 46.9846 37.0547 46.9846 37.0547C46.9846 37.0547 47.1185 37.7285 46.4029 39.6462C45.6874 41.6575 45.1518 44.9156 44.6594 45.1374C44.4362 45.1834 44.1684 45.1834 43.8531 45.1374V46.3914C44.0777 46.3914 44.1684 46.4734 44.1684 46.6102C44.1684 46.7456 44.0777 47.5965 43.8531 48.6691V56.7907C44.2116 56.8367 44.5701 57.2816 45.0611 57.4616C45.7766 57.9079 46.269 58.1282 46.4029 59.6054C46.5368 61.12 47.4741 62.1494 47.5662 62.8203H47.608V57.3248ZM47.608 39.5123C47.965 38.5289 48.2328 37.7285 48.3264 37.5946C48.5942 37.1007 49.5286 36.8387 49.8007 36.7465C50.6041 36.7005 50.427 36.2542 50.0671 35.8496C49.8885 35.6279 49.088 35.4983 48.1018 35.4061C47.8772 35.3169 47.7433 35.3169 47.608 35.3169V39.5123ZM51.4982 41.7885V48.132C51.4535 48.623 51.2736 49.1125 51.2304 49.5127C51.1426 50.5854 51.2304 51.3873 51.4982 51.8811V61.6138C51.1426 61.8787 50.7826 62.1076 50.427 62.3697C49.4408 62.9542 49.4408 63.664 49.6668 64.381C49.7575 65.0058 50.7826 65.4968 51.4982 65.5846V71.3911C51.0979 71.8374 50.427 71.525 50.427 71.525C50.427 71.0326 50.2931 71.1665 50.5148 70.7634C50.6487 70.2767 50.738 69.9125 50.738 69.9125H47.608V66.0756C48.3264 65.8078 48.4128 65.8078 48.5496 65.1368C48.5942 64.6459 48.1896 64.5566 47.834 64.6459C47.7433 64.6459 47.7001 64.6459 47.608 64.738V57.3248C47.7433 57.4169 47.834 57.5508 47.834 57.6876C48.1896 58.6206 48.5942 61.8787 49.0391 61.9694C49.4408 62.0169 50.6041 60.678 50.7826 60.0488C51.2304 58.7573 49.4408 57.2816 48.9052 56.3472C48.3264 55.4071 47.4741 51.6119 48.4128 48.4848C48.8174 46.9702 50.2931 43.9337 51.4982 41.7885ZM51.4982 71.3911C51.6335 71.2543 51.7213 71.0326 51.7674 70.7634C51.8552 70.3142 51.8552 69.9629 51.9891 69.5597C52.0798 69.4705 52.5722 69.4244 53.4217 69.2027C53.6434 69.2027 53.8234 69.1149 54.0494 69.0688V64.5163C53.8234 64.5163 53.7773 64.2456 53.7773 63.579C53.7773 63.0881 53.9126 62.5036 54.0494 62.0169V58.4003L53.9573 58.4867C53.7773 58.7573 53.6434 58.9791 53.4217 58.8884C53.1971 58.8884 52.9264 58.5327 52.4844 57.6876C52.123 56.9649 51.9459 56.0751 52.5722 55.4071C52.8414 55.1421 53.1092 55.0097 53.4217 55.0097C53.6434 54.9161 53.8234 55.0097 54.0494 55.0097V53.4418C53.8234 53.354 53.6434 53.354 53.4217 53.3079C52.9264 53.3079 52.5722 53.0848 52.3505 52.9955C52.0798 52.7248 51.7213 52.4628 51.4982 51.9229V51.8811V61.6138C51.9459 61.2999 52.2598 61.0336 52.6183 60.8075C52.8414 60.678 53.2849 60.5412 53.4217 60.8075C53.4677 60.9472 53.4677 61.166 53.4217 61.5245C53.3338 61.6599 53.3338 61.7506 53.3338 61.7909C52.8414 63.0881 52.5722 65.4968 51.8552 65.5846H51.4982V71.3911ZM54.0494 38.6182C53.8234 38.7564 53.6434 38.9321 53.4217 39.112C52.9753 39.4662 52.6183 39.829 52.4383 40.1832C52.2137 40.5849 51.8552 41.0787 51.4982 41.6964V48.132V48.0399C51.8552 46.3914 52.4383 44.7818 52.6183 44.4247C52.9264 43.9337 53.0632 44.203 53.4217 44.514C53.5527 44.5528 53.6434 44.6911 53.7773 44.6911C53.8234 44.6911 53.9573 44.7818 54.0494 44.8278V38.6182ZM54.0494 33.6165C53.8234 33.6165 53.6434 33.6165 53.4217 33.7087C53.1971 33.7087 53.0632 33.7533 52.9264 33.9347C51.9891 34.823 52.5722 35.3169 53.4217 35.6279C53.6434 35.6739 53.8234 35.7589 54.0494 35.7589V33.6165ZM55.7454 52.506V55.7641C55.2545 56.7906 55.0299 58.4003 54.8067 59.2454C54.6742 59.8242 54.4482 60.5412 54.2711 61.2999C54.1804 61.5245 54.1372 61.7506 54.0494 62.0169V58.4003C54.1372 58.2678 54.1804 58.1282 54.2711 57.9943C54.3143 57.6358 54.405 57.1477 54.5389 56.4811C54.8067 55.4992 54.6282 55.2285 54.2711 55.1421C54.1804 55.0471 54.1372 55.0471 54.1372 55.0471L54.0494 55.0097V53.4418H54.2711C54.6742 53.4418 55.1177 53.354 55.3884 53.2187C55.5223 53.1769 55.6115 52.8616 55.7454 52.506ZM54.0494 69.0688V64.5163C54.1372 64.5566 54.1804 64.5566 54.2711 64.5566C54.5389 64.5163 54.9867 64.2932 55.6533 64.0657H55.7454V68.359C55.1638 68.6239 54.6742 68.8471 54.2711 68.981C54.1804 68.981 54.1372 68.981 54.0494 69.0688ZM55.7454 37.4563V39.112C55.5223 39.292 55.3884 39.5123 55.2545 39.6462C54.7621 40.4956 54.4482 40.7188 54.6282 42.2334C54.6742 43.3521 55.1638 43.9769 55.7454 44.334V45.8976C55.2545 45.7622 54.6742 45.2756 54.2711 45.0078C54.1804 44.9156 54.1372 44.8278 54.0494 44.8278V38.6182C54.1372 38.5289 54.1804 38.5289 54.2711 38.4411C54.6742 38.0826 55.2545 37.8177 55.7454 37.4563ZM55.7454 34.1996V36.342C55.4776 36.1649 55.1638 36.0281 54.896 35.9878C54.7621 35.8957 54.4482 35.8957 54.2711 35.8496C54.1804 35.8496 54.1372 35.8496 54.0494 35.7589V33.6165H54.2711C54.6742 33.7087 55.1638 33.9347 55.6115 34.1104C55.6115 34.1104 55.6533 34.1996 55.7454 34.1996ZM55.7454 22.771V23.3512C54.7621 22.8602 54.7621 22.5464 55.7454 22.771ZM55.7454 68.359C56.1039 68.2222 56.4566 67.9962 56.8641 67.8623V63.5301C56.5085 63.7129 56.1039 63.9332 55.7454 64.0657V68.359ZM56.8641 35.4061C56.5963 34.9195 56.1471 34.4674 55.7454 34.1996V36.342C56.1039 36.5219 56.4566 36.7465 56.7273 36.8776C56.4566 37.0547 56.1039 37.2375 55.7454 37.4563V39.112C56.0132 38.7564 56.4566 38.3922 56.8641 38.0366V35.4061ZM56.8641 52.9955C56.6424 52.9509 56.7273 52.2339 56.8641 51.0763V44.6435C56.5085 44.6911 56.1039 44.6435 55.7454 44.334V45.8976C55.8793 45.9825 56.0132 46.0746 56.1471 46.0746C56.4566 45.9825 56.8166 45.8976 56.8641 45.8544V45.8976C56.8166 46.3468 56.5085 48.4848 56.2378 49.4667C56.1039 50.1837 55.9729 51.6536 55.7454 52.506V55.7641C55.8793 55.4071 56.0132 55.2285 56.2378 55.0471C56.4566 55.0097 56.6424 54.8715 56.8641 54.7793V52.9955ZM56.8641 23.1295C56.7273 23.1295 56.6424 23.0373 56.5085 22.9912C56.2378 22.902 55.9729 22.8602 55.7454 22.771V23.3512C55.9729 23.4851 56.1471 23.5297 56.4566 23.7039C56.5963 23.8421 56.7273 23.8868 56.8641 23.9789V23.1295ZM27.6719 36.1217C28.0735 36.0756 28.2074 35.3169 27.6719 34.4214V36.1217ZM27.6719 43.9337V40.8527C29.1476 39.5123 30.6694 38.1762 30.5787 37.9041C30.5355 36.7005 29.9524 37.1007 29.2369 36.342C28.6998 35.5372 29.0137 34.1104 30.8897 35.1801C31.7406 35.6739 31.1575 36.7005 32.0098 37.1914C32.0544 37.2375 32.1423 37.2375 32.2301 37.2375V38.6182C32.0544 38.6643 31.9177 38.7564 31.7406 38.8011C30.8004 39.4662 30.3987 39.4662 29.8171 40.451C28.7459 42.4134 29.8171 42.7244 30.2188 43.7091C30.8004 44.8278 31.4267 45.2756 32.2301 45.2756V46.3468C31.7838 46.3468 31.1575 46.3914 30.8004 46.2085C30.177 45.8544 29.7264 45.3605 28.8337 44.203C28.3874 43.6674 28.0304 43.7538 27.6719 43.9337ZM27.6719 66.2555V60.7672C27.8086 60.8075 27.9396 60.8536 28.1182 60.8997C28.3442 60.9472 28.6998 60.1827 28.8337 59.47C28.9691 58.7573 29.3247 58.2678 28.9691 58.0404C28.923 58.0404 28.3442 57.9554 27.6719 57.8647V56.615C28.2074 56.615 28.6091 56.615 28.6091 56.435C28.6091 56.2997 28.2074 56.0751 27.6719 55.8073V52.4628C28.7459 53.8406 29.8603 54.4295 30.2188 54.3805C30.6694 54.2927 30.9343 51.9229 31.562 50.45C31.7838 49.8223 32.0544 48.9743 32.2301 48.1738V51.4334C31.7406 53.3079 31.385 54.8715 31.562 54.9161C31.6527 55.0097 31.9177 55.0097 32.2301 55.0097V56.0751C31.6527 55.9858 31.0711 56.0751 30.9343 56.3472C30.8897 56.7028 31.7838 57.9079 31.6527 58.3585C31.2914 59.1115 30.308 58.2678 30.177 58.7084C29.7264 60.0488 29.3247 61.3878 29.2369 61.7506C29.1908 62.3236 29.8171 62.2372 30.308 62.5986C30.8897 62.8621 30.9343 63.5301 31.7838 63.1774C31.9177 63.0881 32.0544 63.042 32.2301 62.8621V68.5793C30.3987 67.7745 28.4752 66.6572 27.7597 66.0756C27.7597 66.0756 27.7165 66.1245 27.6719 66.2555ZM59.4556 61.5245V66.2555C59.3664 66.3477 59.2339 66.4384 59.1418 66.4772C58.3384 67.0172 57.5768 67.4203 56.8641 67.7745V63.5301C58.0274 62.8203 59.0525 61.9248 59.4556 61.5245ZM59.4556 52.8616V54.5605C59.3664 54.4727 59.2339 54.4295 59.1418 54.4295C58.5184 54.4295 57.5768 54.5605 56.8641 54.7793V52.9955C57.6675 53.1265 58.8308 52.8616 59.4556 52.8616ZM59.4556 35.7589V40.7188C59.1878 41.5654 58.9186 42.4594 58.6508 43.4399C58.563 43.8013 59.1418 44.154 59.1418 44.5528C59.0525 45.8544 58.1627 45.6283 58.0706 46.0746C57.5768 47.9017 57.1751 49.7345 56.8641 51.0302V44.6435C56.998 44.5528 57.0844 44.5528 57.1751 44.5528C57.5768 44.334 57.8028 42.8583 58.0274 41.8792C58.2045 40.8527 58.9186 38.7564 59.1418 38.0826C59.3664 37.5456 59.2785 36.4759 58.3384 37.0547C57.9353 37.2375 57.4429 37.5946 56.8641 38.0366V35.4061C57.2211 35.8496 57.4429 36.1649 57.5768 36.4759C58.2045 36.1649 58.694 35.9878 58.9186 35.8957C59.0986 35.8496 59.2785 35.805 59.4556 35.7589ZM59.4556 24.5116V26.1644C58.6508 25.3179 57.7567 24.5116 56.8641 23.9789V23.1295C57.7135 23.4419 58.6047 23.93 59.4556 24.5116ZM59.4556 26.1644V24.5116C60.7514 25.4474 62.0025 26.6093 63.078 27.7251H63.1687V30.9401H63.078C62.8088 30.4505 62.5381 29.9582 62.0932 29.4226C61.5577 28.7085 60.5729 27.3724 59.4556 26.1644ZM59.4556 40.7188V35.7589C60.259 35.6279 60.8407 35.8496 60.8407 35.8496C60.8407 35.8496 63.5675 36.342 60.7514 37.2375C60.5729 37.2807 60.0819 38.7132 59.4556 40.7188ZM59.4556 66.2555V61.5245L59.5017 61.4828C60.0373 60.8997 60.8882 58.8884 60.8882 58.2678C60.8882 57.6876 60.2158 55.1853 59.4556 54.5605V52.8616C59.5895 52.817 59.6802 52.8616 59.7695 52.8616C60.259 53.0848 61.1113 55.7641 61.1992 55.9858C61.1992 55.9858 60.8407 43.0872 61.6008 39.9601C61.8715 38.7564 62.5381 37.8177 63.078 37.1007H63.1687V39.6001H63.078C62.9009 40.0061 62.8088 40.3617 62.8088 40.5849C62.8088 41.0787 62.9009 41.6964 63.078 41.6575H63.1687V57.6358C63.1687 57.6876 63.1687 57.6876 63.078 57.6876C63.078 57.8215 63.0348 57.9943 62.9427 58.1282C62.4532 59.3822 61.8255 60.1827 61.8255 60.1827C61.1992 61.166 60.8882 61.9694 62.1825 60.9472C62.5381 60.5412 62.8088 60.1827 63.078 59.8242C63.1687 59.8242 63.1687 59.7392 63.1687 59.7392V62.8203H63.078C62.1825 63.7993 60.9314 65.1829 59.4556 66.2555ZM67.5916 33.0867C67.0546 32.279 65.2693 29.9985 63.1687 27.7251V30.9401C64.7784 33.5806 65.2232 35.5372 65.2232 35.5372C65.2232 35.5372 64.1492 36.0281 63.1687 37.1007V39.6001C63.5243 38.8011 64.1492 37.9516 64.597 37.5456C65.3571 36.8387 65.7128 37.5456 65.6249 37.9041C65.5789 38.7564 64.9123 39.377 64.417 39.6462C63.2105 40.5849 63.5675 41.3868 63.2105 41.5654C63.1687 41.5654 63.1687 41.5654 63.1687 41.6575V57.6358C63.8814 55.7209 63.7936 54.5605 63.7461 52.2339C63.6582 49.5127 63.5243 46.8363 63.7936 47.2811C64.1492 47.6828 64.9986 51.1685 64.9986 52.8616C64.9123 56.209 64.9123 57.4616 63.1687 59.7392V62.8203C63.5243 62.4575 63.8814 62.1076 64.1492 61.7909C66.4744 59.6054 67.0546 56.209 67.4563 55.1421C67.8133 54.0249 67.5455 52.4628 66.8343 50.45C66.2527 48.5337 65.4939 45.8544 65.1325 44.203C64.7309 42.5977 64.597 41.2098 65.0865 40.4956C65.4939 39.829 65.5789 39.734 66.2527 40.0939C66.8343 40.3617 67.1007 41.0787 66.8343 43.9769C66.5651 47.0594 66.9221 47.7707 67.7701 45.8976C68.4439 44.203 68.395 42.3702 68.4439 41.2098C68.6196 40.0061 68.7996 38.9321 69.1134 38.3922C69.3812 37.8177 68.6196 34.6892 67.5916 33.0867Z" fill="#006097"/>
<path fill-rule="evenodd" clip-rule="evenodd" d="M6.61851 56.209C6.48317 56.1212 6.34928 56.0751 6.21538 55.9859C5.49983 55.6302 5.00744 55.0097 4.78284 54.1545C4.60575 53.354 4.73964 52.5967 5.09814 51.8812C5.49983 51.1685 6.21538 50.6804 7.10802 50.4501C7.32974 50.3622 7.64361 50.3133 7.82357 50.3133H7.91428V51.3873C7.7775 51.3873 7.64361 51.4334 7.42045 51.4334C6.43854 51.6537 5.76762 52.1043 5.36737 52.637C5.00744 53.0848 5.00744 53.5757 5.09814 54.0696C5.23204 54.6483 5.58909 55.0472 6.12468 55.2761C6.30321 55.3625 6.43854 55.4071 6.57244 55.4071C6.70633 55.4992 6.83879 55.4992 7.06195 55.4992H7.10802C7.28655 55.4992 7.42045 55.4992 7.46652 55.4071H7.82357L7.91428 55.3625V56.4351C7.46652 56.4351 7.06195 56.3472 6.61851 56.209ZM7.91428 56.4351C8.18207 56.4351 8.40523 56.3472 8.67302 56.2537C9.52103 55.9859 10.2366 55.5842 10.6843 54.8715C11.086 54.0696 11.2199 53.354 10.9968 52.5967C10.8182 51.7919 10.3705 51.2592 9.65493 50.8071C9.52103 50.7193 9.39001 50.6804 9.29643 50.5854C9.25324 50.5854 9.25324 50.5854 9.25324 50.5393C9.12222 50.5393 8.98257 50.4501 8.80692 50.4501V50.3622C8.67302 50.3622 8.53769 50.3622 8.40523 50.3133H7.91428V51.3873C8.49306 51.2592 8.89762 51.2592 9.29643 51.2995V51.3873C9.4764 51.3873 9.6103 51.4334 9.74707 51.4334C10.2366 51.6537 10.5073 52.1043 10.6843 52.5967C10.8182 53.1769 10.729 53.6664 10.4612 54.0696C10.0149 54.5605 9.29643 55.0097 8.31597 55.2761C8.18207 55.3625 8.04529 55.3625 7.91428 55.3625V56.4351Z" fill="#006097"/>
<path fill-rule="evenodd" clip-rule="evenodd" d="M4.73964 46.3468L9.29642 45.9825L9.39001 46.9284C9.47639 47.1041 9.39001 47.3272 9.29642 47.4611C9.25323 47.6829 9.16541 47.7707 8.98256 47.9017C8.89762 47.9521 8.67302 47.9521 8.40522 48.0399L8.49305 48.266L9.88096 48.0399L9.52102 43.0872H8.13599V43.2643C8.40522 43.2643 8.62982 43.2643 8.76372 43.4399C8.98256 43.486 9.03151 43.6199 9.12222 43.8013C9.16541 43.9338 9.16541 44.1541 9.25323 44.4247V45.1374L4.65181 45.4988C4.29188 45.4988 4.11191 45.4988 3.93626 45.4066C3.79948 45.3606 3.66847 45.1374 3.66847 44.8279V44.6436L3.53169 44.6911L3.66847 47.2812H3.88731V47.0595C3.79948 46.8363 3.88731 46.6103 3.93626 46.4735C4.11191 46.3914 4.29187 46.3914 4.73964 46.3468Z" fill="#006097"/>
<path fill-rule="evenodd" clip-rule="evenodd" d="M14.4824 62.1077C14.707 62.1494 14.8423 62.2372 14.9762 62.5036L15.0669 62.7282L15.2008 62.6836L14.2607 60.7673L14.0361 60.8076L14.2146 60.9472C14.2607 61.1661 14.3514 61.3878 14.2607 61.5246C14.2146 61.6599 13.9929 61.7909 13.679 62.017L10.5072 63.5791L12.9217 58.1282L12.1601 56.7029H12.0262C12.1601 56.926 12.1601 56.9649 12.1601 57.1477C12.2061 57.2816 12.2061 57.4616 12.1601 57.5509C12.1601 57.6876 12.1601 57.8215 12.0262 58.1282L8.18206 60.0488C7.91427 60.1827 7.68823 60.2288 7.55865 60.2288C7.32973 60.2288 7.28654 60.0949 7.10801 59.9149L7.06194 59.6961L6.83878 59.7393L7.82357 61.6599L7.95746 61.6138L7.91427 61.3878C7.77749 61.1661 7.77749 60.9472 7.82357 60.8076C7.91427 60.7673 8.04529 60.5858 8.40522 60.4059L11.7138 58.7084L9.16541 64.5567L9.25323 64.6459L13.859 62.3236C14.2146 62.1494 14.3974 62.1077 14.4824 62.1077Z" fill="#006097"/>
<path fill-rule="evenodd" clip-rule="evenodd" d="M17.883 70.3142L18.0169 70.2767L16.4519 68.395L16.318 68.5793C16.5412 68.7117 16.5829 68.8917 16.5829 68.981V69.2488C16.5412 69.4244 16.4058 69.5598 16.1812 69.6965L14.8423 70.9001C14.6162 70.7634 14.3974 70.6741 14.2606 70.5402C14.036 70.4538 13.9021 70.2767 13.679 70.1414C13.5004 69.829 13.3665 69.4705 13.2773 69.0688C13.1866 68.6239 13.2773 68.133 13.5004 67.6363C13.679 67.1914 14.036 66.7926 14.4823 66.3477C15.0669 65.946 15.6903 65.6336 16.318 65.5846C17.0336 65.4968 17.657 65.7199 18.1479 66.3477C18.5093 66.7926 18.6446 67.2835 18.6446 67.7745C18.5986 68.133 18.4157 68.4871 18.2415 68.8917L18.2818 69.0688L19.7144 67.6852L19.5805 67.5513C19.448 67.6363 19.3559 67.6852 19.2666 67.6852C19.222 67.6852 19.1341 67.6852 19.1341 67.6363C19.0881 67.5513 18.9988 67.5024 18.9988 67.2835C18.8649 67.0172 18.7325 66.7926 18.6446 66.5665C18.5986 66.4384 18.4157 66.2123 18.2818 66.0756C17.9262 65.5846 17.4353 65.2751 17.0336 65.098C16.4058 64.918 15.8256 64.8748 15.1101 65.0058C14.6162 65.1369 14.1267 65.3658 13.679 65.72C13.1434 66.2123 12.7849 66.7926 12.651 67.5024C12.4278 68.4871 12.6956 69.4244 13.5004 70.3142C13.7682 70.6295 14.036 70.9001 14.3513 71.1204C14.6162 71.2543 14.9762 71.4789 15.2425 71.6143L16.7197 70.4063C16.9429 70.1875 17.1675 70.0507 17.3042 70.0507C17.4353 69.9629 17.657 70.1414 17.7923 70.2767L17.883 70.3142Z" fill="#006097"/>
<path fill-rule="evenodd" clip-rule="evenodd" d="M23.1123 71.2543C23.2908 71.1665 23.4708 71.2543 23.6478 71.3911L23.8724 71.525L23.9617 71.3911L21.9043 69.7858L21.8165 69.9125L21.9489 70.0507C22.1289 70.1414 22.1721 70.2768 22.2628 70.4063V70.6741C22.2628 70.7634 22.1289 70.9002 21.9043 71.1665L19.2667 74.4275C19.1342 74.6493 18.9989 74.7371 18.865 74.7371C18.7326 74.7832 18.6447 74.7832 18.5987 74.7371C18.5094 74.6493 18.5094 74.5168 18.5987 74.3829C18.6447 74.118 18.6447 73.892 18.6447 73.7998C18.6447 73.6645 18.5987 73.6645 18.5094 73.5767C18.4158 73.4456 18.2819 73.4456 18.148 73.4456C18.017 73.4456 17.9263 73.532 17.8831 73.6645C17.7463 73.7998 17.6571 73.938 17.7463 74.1554C17.7463 74.3829 17.9263 74.6075 18.148 74.7371C18.3726 74.9617 18.7326 75.0985 18.9989 75.0985C19.356 75.0985 19.6266 74.9617 19.8498 74.7832C20.1176 74.6493 20.4271 74.4275 20.6992 74.0287L22.6213 71.7453C22.7984 71.3911 22.9784 71.2543 23.1123 71.2543Z" fill="#006097"/>
<path fill-rule="evenodd" clip-rule="evenodd" d="M25.2128 72.3759L25.4374 72.5501C25.5713 72.5962 25.6605 72.6869 25.7052 72.8179C25.7944 72.91 25.7944 73.0439 25.7944 73.0871C25.7944 73.1735 25.6605 73.401 25.5713 73.6645L23.5139 77.0608C23.38 77.3761 23.2461 77.5518 23.1122 77.641C22.9783 77.7289 22.7551 77.641 22.5305 77.5518L22.3059 77.4179L22.2628 77.5518L24.4972 78.9354L24.5879 78.7122L24.4512 78.6215C24.3201 78.5783 24.228 78.4444 24.0955 78.3566C24.0077 78.2198 24.0077 78.1306 24.0077 78.0874C24.0077 77.9088 24.1416 77.7778 24.3201 77.5028L26.2868 74.118C26.5114 73.7998 26.6425 73.5766 26.6856 73.532C26.9102 73.4456 27.1334 73.532 27.358 73.6645L27.4948 73.7537L27.5409 73.5766L25.3467 72.327L25.2128 72.3759Z" fill="#006097"/>
<path fill-rule="evenodd" clip-rule="evenodd" d="M36.7451 77.153L36.9697 77.1947C37.239 77.284 37.3714 77.3761 37.4607 77.5518C37.5053 77.641 37.5053 77.9088 37.3714 78.2688L36.7912 80.6789C36.6573 81.3426 36.4342 81.7443 36.3003 82.0625C36.1203 82.2396 35.8957 82.4196 35.5372 82.4627C35.0923 82.5995 34.8245 82.5995 34.4228 82.4627C34.0643 82.4196 33.8412 82.3317 33.7073 82.1086C33.4827 81.9718 33.3488 81.8365 33.261 81.6162C33.2178 81.3887 33.2178 81.2131 33.261 80.856C33.261 80.5421 33.261 80.2772 33.3488 80.0512L34.0643 77.4179C34.109 77.0608 34.1982 76.9241 34.3321 76.793C34.4228 76.7052 34.5999 76.6591 34.8245 76.7052L35.0923 76.793V76.6591L32.59 75.9882L32.4993 76.1682L32.7671 76.2114C32.9917 76.305 33.1271 76.3482 33.2178 76.5238C33.261 76.6591 33.261 76.8809 33.2178 77.1947L32.59 79.5631C32.4101 80.2772 32.364 80.7667 32.364 81.0331C32.4101 81.4808 32.59 81.8365 32.8578 82.1086C33.1271 82.4627 33.6166 82.6873 34.2429 82.9105C34.8245 83.0444 35.4062 83.0444 35.7618 82.9105C36.1635 82.6873 36.4342 82.4628 36.6573 82.1978C36.879 81.8825 37.0158 81.3887 37.1497 80.856L37.7746 78.4444C37.8653 78.0874 37.9545 77.8628 37.9991 77.7778C38.2223 77.6411 38.4469 77.5518 38.624 77.641L38.8457 77.7289L38.9379 77.5518L36.7912 77.0119L36.7451 77.153Z" fill="#006097"/>
<path fill-rule="evenodd" clip-rule="evenodd" d="M44.4362 77.8628H44.6594C44.9258 77.8628 45.0611 77.9088 45.1518 78.0874C45.1979 78.1306 45.2857 78.4444 45.2857 78.7554L45.1518 82.3317L41.6215 77.5518L39.9198 77.5028V77.7289C40.1444 77.7289 40.2797 77.7289 40.3243 77.7778C40.5014 77.8628 40.6353 77.8628 40.68 77.9088C40.8153 77.9967 40.906 78.1306 41.1277 78.4444L40.9938 82.5995C40.9938 82.9523 40.906 83.1797 40.8153 83.3136C40.6799 83.4504 40.5461 83.5382 40.2797 83.5382H40.0537V83.6664L42.1542 83.7542V83.6246H41.9786C41.7526 83.6246 41.5308 83.4504 41.4848 83.4015C41.3969 83.2661 41.3048 83.0444 41.3969 82.5995L41.4848 78.9354L45.375 83.9831H45.5089L45.6427 78.7554C45.6427 78.4444 45.6874 78.2198 45.7766 78.1306C45.9105 77.9967 46.0444 77.9088 46.354 77.9088H46.5368V77.7778L44.4362 77.641V77.8628Z" fill="#006097"/>
<path fill-rule="evenodd" clip-rule="evenodd" d="M50.918 82.9105C50.7826 82.8184 50.738 82.8184 50.6487 82.7766C50.6487 82.5995 50.6041 82.4196 50.5148 82.1086L49.8007 78.2198C49.6668 77.8628 49.6668 77.641 49.7575 77.5028C49.8885 77.3761 50.0253 77.284 50.247 77.1947L50.427 77.153V77.0119L47.834 77.5028L47.8772 77.641H48.5496C48.5942 77.7289 48.682 77.7289 48.7281 77.7778C48.8174 77.8628 48.8174 78.1306 48.9052 78.4444L49.6668 82.3317C49.7575 82.6873 49.7575 82.9105 49.6668 83.0444C49.6668 83.1797 49.4408 83.2661 49.173 83.3136L49.0391 83.4015V83.5382L51.5874 83.0444V82.9105H50.918Z" fill="#006097"/>
<path fill-rule="evenodd" clip-rule="evenodd" d="M56.5085 75.2324L56.5963 75.4555L56.6424 75.3663C56.8641 75.3663 56.998 75.3663 57.1751 75.4555C57.2212 75.4555 57.3119 75.4973 57.3119 75.5865C57.3551 75.7204 57.3551 75.9882 57.3551 76.3482L57.1751 80.188L54.5389 77.284C54.2711 77.0119 54.1372 76.8809 54.1372 76.7052C54.0494 76.5699 54.0494 76.5238 54.1372 76.4374C54.1804 76.305 54.3143 76.2114 54.6282 76.0789L54.5389 75.945L52.2137 76.793V76.9241C52.4383 76.8809 52.5722 76.8809 52.7033 76.8809C52.7954 76.8809 52.9264 76.9241 53.0632 76.9241C53.0632 77.0119 53.1971 77.0608 53.4217 77.3761L57.3119 81.6162L57.4429 81.5269L57.8028 75.945C57.8028 75.5865 57.8475 75.3663 57.9353 75.1417C58.0706 75.0063 58.1628 74.8724 58.3384 74.7832L58.2952 74.6493L56.5085 75.2324Z" fill="#006097"/>
<path fill-rule="evenodd" clip-rule="evenodd" d="M65.9834 75.0985C66.0756 75.4973 65.9834 75.8586 65.9834 76.0789C65.9388 76.305 65.8495 76.5238 65.7617 76.5699C65.6249 76.7052 65.4939 76.8809 65.1326 77.0608L64.2831 77.641C64.1492 77.7289 64.0599 77.7289 63.926 77.7289C63.8814 77.7778 63.8814 77.7289 63.7936 77.7289C63.7461 77.6411 63.6583 77.5518 63.5244 77.284L62.4071 75.6772L63.5244 74.8724C63.7461 74.7371 63.8814 74.6493 64.0599 74.6493C64.1492 74.6493 64.2831 74.6493 64.417 74.7371C64.5077 74.7371 64.6416 74.9617 64.8648 75.1417L64.9123 75.0063L63.7936 73.2196L63.6583 73.401C63.8814 73.6645 63.8814 73.892 63.8814 74.118C63.7936 74.2447 63.6583 74.4275 63.3919 74.6493L62.2271 75.3662L60.8882 73.3117L62.3164 72.3759C62.5842 72.2348 62.721 72.1081 62.901 72.1081C63.0348 72.016 63.1687 72.1081 63.2998 72.1974C63.4337 72.2348 63.6583 72.327 63.8814 72.5962L64.0139 72.5501L63.2105 71.3911L59.2786 73.938L59.3664 74.1554L59.5463 74.0287C59.6802 73.892 59.9034 73.7998 60.0373 73.892C60.2158 73.892 60.3526 74.118 60.5297 74.4275L62.721 77.7289C62.9009 77.9967 63.0348 78.1306 63.0348 78.2688C63.0348 78.3566 63.0348 78.4444 62.9427 78.5783C62.901 78.7122 62.8088 78.7554 62.6749 78.8475L62.5381 78.9843L62.5842 79.1153L66.5651 76.5699L66.1173 74.9617L65.9834 75.0985Z" fill="#006097"/>
<path fill-rule="evenodd" clip-rule="evenodd" d="M67.8134 67.7745V68.395H67.7702C67.5456 68.395 67.4146 68.4872 67.1885 68.6239C67.1007 68.7118 67.0546 68.7593 66.9668 68.8471C66.8343 68.8917 66.699 69.1149 66.5651 69.3366L67.8134 70.7634V72.016L66.3405 70.4538C66.0756 70.1875 65.8495 69.9629 65.7617 69.9629C65.5789 69.9629 65.4003 70.0507 65.2233 70.1875L65.0865 70.4063L64.9123 70.2768L66.5651 68.7118C67.0546 68.2683 67.4146 67.9962 67.6823 67.8623C67.7702 67.7745 67.8134 67.7745 67.8134 67.7745ZM72.6898 70.6741C72.5098 70.7634 72.062 70.7634 71.6604 70.6295L69.4691 70.2768C69.7829 69.829 69.9629 69.4244 69.9629 69.0688C69.8736 68.6239 69.7369 68.359 69.4691 68.0423C69.2473 67.8623 68.9767 67.6363 68.6196 67.6363H68.395C68.2611 67.6363 68.0394 67.6363 67.9041 67.6852L67.8134 67.7745V68.395H67.9041C68.2611 68.395 68.5289 68.5793 68.7996 68.8471C69.1134 69.1149 69.1552 69.4244 69.1552 69.829C69.1134 70.1875 68.8874 70.6295 68.444 71.0326C68.444 71.0326 68.395 71.0326 68.395 71.1204C68.395 71.1204 68.3058 71.1665 68.2611 71.1665L67.8134 70.7634V72.016L69.1134 73.3117C69.2905 73.532 69.4691 73.7537 69.4691 73.7998C69.5151 74.0287 69.4691 74.2447 69.2473 74.4275L69.1134 74.6075L69.1552 74.7371L71.0787 72.8179L70.988 72.7286L70.8123 72.91C70.6309 73.0871 70.4985 73.0871 70.3156 73.0871C70.1414 73.0871 69.9629 72.9518 69.7369 72.6869L68.444 71.3911C68.5289 71.3911 68.5289 71.345 68.6196 71.345C68.6196 71.2543 68.6628 71.2543 68.6628 71.2543C68.755 71.1665 68.7996 71.0326 68.9767 70.9851L72.4191 71.525L73.6299 70.4538L73.4903 70.3142C73.1793 70.5402 72.9115 70.6741 72.6898 70.6741Z" fill="#006097"/>
<path fill-rule="evenodd" clip-rule="evenodd" d="M76.3539 64.0254C76.1753 63.8872 75.9522 63.7994 75.7276 63.7994C75.4598 63.713 75.2366 63.7994 74.9688 63.8872C74.6982 63.8872 74.2533 64.0657 73.6702 64.381C73.0007 64.7381 72.5098 64.918 72.1959 64.918C71.9713 65.0059 71.8374 64.918 71.6603 64.8748C71.4818 64.6459 71.3464 64.5163 71.3018 64.2457C71.3018 63.9333 71.3464 63.664 71.4818 63.353C71.6603 63.1774 71.8374 63.042 72.1513 62.8621C72.4191 62.7282 72.6897 62.6836 73.0007 62.7282C73.2685 62.7282 73.5363 62.8203 73.8948 63.042L74.0287 62.8621L72.2852 61.6599L72.1959 61.7909C72.2852 61.8787 72.3298 62.017 72.3298 62.017V62.2372C72.2852 62.3236 72.1513 62.3697 71.9713 62.5036C71.6603 62.7282 71.4357 62.9542 71.214 63.2206C70.9462 63.5791 70.8123 64.0657 70.854 64.5163C70.9462 65.0059 71.1708 65.3658 71.4818 65.6336C71.7035 65.72 71.9281 65.8568 72.1513 65.8568C72.4191 65.946 72.6437 65.8568 72.9114 65.8078C73.1792 65.72 73.6299 65.4968 74.1626 65.2751C74.6982 65.0059 75.012 64.8748 75.192 64.7841C75.3705 64.7381 75.5937 64.7381 75.7276 64.7381C75.9522 64.7381 76.0414 64.7841 76.1753 64.918C76.4431 65.098 76.5756 65.2751 76.5756 65.5846C76.5756 65.8568 76.5338 66.2124 76.3078 66.4773C76.0861 66.7926 75.8615 66.9265 75.5937 67.0575C75.3288 67.1914 75.1027 67.2835 74.8321 67.2835C74.5225 67.2835 74.2533 67.1496 73.8516 67.0172L73.7609 67.0575L75.4598 68.359L75.5505 68.2222C75.4598 68.0423 75.3705 67.9962 75.3705 67.9069C75.3705 67.8623 75.3705 67.8623 75.4598 67.7745C75.4598 67.6852 75.5937 67.5513 75.8615 67.3253C76.0861 67.1914 76.3078 67.0575 76.3078 67.0172C76.4431 66.8372 76.5756 66.7926 76.6649 66.5665C77.0234 66.1245 77.0665 65.6336 77.0665 65.1369C76.9355 64.6459 76.7095 64.2932 76.3539 64.0254Z" fill="#006097"/>
<path fill-rule="evenodd" clip-rule="evenodd" d="M80.0656 60.0488C79.9734 60.1827 79.9302 60.2288 79.7503 60.3137C79.7056 60.4059 79.6178 60.4059 79.4839 60.4059C79.3947 60.4059 79.2147 60.3137 78.993 60.1827L75.4598 58.4003C75.1028 58.1743 74.8767 58.0404 74.8321 57.9943C74.7443 57.7755 74.7443 57.6358 74.8767 57.417L74.9689 57.1938L74.8321 57.1477L73.6702 59.47L73.8516 59.5593L73.8948 59.3333C73.9855 59.2023 74.0287 59.1115 74.1626 59.0266C74.2533 58.9791 74.3887 58.8884 74.4765 58.8884C74.5226 58.9791 74.7443 59.0266 75.0121 59.2022L78.5452 60.9472C78.9023 61.12 79.0808 61.2539 79.1269 61.3878C79.2147 61.5246 79.2147 61.7506 79.0808 61.9694L78.993 62.1494L79.1269 62.2372L80.3334 59.9149L80.198 59.8242L80.0656 60.0488Z" fill="#006097"/>
<path fill-rule="evenodd" clip-rule="evenodd" d="M82.1647 53.7096C82.1201 53.9357 82.0308 54.0696 81.8969 54.1545C81.763 54.2035 81.5413 54.2035 81.1828 54.0696L76.6649 52.8616L76.8909 52.0122C76.9356 51.7919 77.0234 51.6119 77.1587 51.4334C77.2926 51.3873 77.4294 51.2592 77.6511 51.2592C77.7389 51.1685 77.9189 51.1685 78.1406 51.2592L78.2299 51.0763L76.8909 50.7193L75.5505 55.6302L76.8909 56.0751L76.9356 55.8549C76.6649 55.7641 76.5339 55.6302 76.3539 55.4992C76.2215 55.3625 76.1754 55.2286 76.1754 55.0472C76.1754 54.9161 76.1754 54.6944 76.2215 54.4295L76.4432 53.7096L80.9568 54.9161C81.3153 55.0097 81.4506 55.1422 81.5845 55.2286C81.6723 55.3625 81.6723 55.5842 81.5845 55.7641V55.9859L81.763 56.0751L82.3879 53.4879H82.2569L82.1647 53.7096Z" fill="#006097"/>
<path fill-rule="evenodd" clip-rule="evenodd" d="M83.5944 45.1835L83.5066 45.4066C83.5066 45.6284 83.4605 45.8544 83.282 45.8976C83.2388 45.9825 82.9263 46.0747 82.6154 45.9825L81.0475 45.8976L78.8591 44.2908C78.5452 44.0662 78.3667 43.8459 78.2774 43.7092C78.1406 43.6199 78.0528 43.486 78.0067 43.2643C77.9189 43.1304 77.9189 43.0872 77.9189 42.9504V42.8583H77.7389L77.5633 45.0078H77.785C77.785 44.8279 77.785 44.6911 77.8728 44.6436C77.9189 44.5529 77.9189 44.514 78.0067 44.514C78.0528 44.4247 78.1406 44.4247 78.2299 44.4247C78.4113 44.4247 78.5452 44.5529 78.8591 44.6911L80.6919 46.0747L78.6345 47.1934C78.2774 47.3272 78.1406 47.4611 78.0067 47.4611C77.8728 47.4151 77.785 47.3272 77.7389 47.1934C77.6511 47.1041 77.6511 46.9702 77.6511 46.8363V46.6981H77.5143L77.2926 49.3386H77.4294C77.4294 49.1557 77.5143 49.1125 77.5143 49.0247C77.6511 48.8404 77.7389 48.6691 77.8728 48.623C77.9189 48.5338 78.1406 48.4848 78.4113 48.266L81.0907 46.7456L82.5247 46.9284C82.8803 46.9284 83.1049 46.9284 83.1509 47.0595C83.3741 47.1041 83.4605 47.3273 83.3741 47.5965V47.8168H83.5066L83.7297 45.1835H83.5944Z" fill="#006097"/>
</svg>
