<svg width="1254" height="1254" xmlns="http://www.w3.org/2000/svg" data-name="图层 1">
 <g>
  <title>Layer 1</title>
  <path class="cls-9" d="m717.41,759.16c0,27.3 -0.52,54.62 0.16,81.9c0.57,22.76 2.52,45.49 9.98,67.31c4.56,13.35 10.76,25.8 20.39,36.28c14.6,15.89 33.09,22.76 54.33,23.3c24.99,0.64 47.89,-6.6 69.49,-18.49c34.73,-19.1 62.66,-45.91 86.11,-77.5c29.91,-40.31 49.75,-85.46 63.35,-133.59c14.28,-50.55 20.74,-102.04 17.76,-154.47c-3.65,-64.24 -20.73,-124.51 -56.27,-178.79c-29.69,-45.34 -69.34,-78.31 -120.86,-96.45c-7.29,-2.57 -14.51,-5.93 -20.97,-10.13c-14.14,-9.2 -17.87,-26.27 -8.64,-39.08c7.88,-10.93 19.74,-13.45 32.1,-11.36c52.04,8.82 93.96,35.56 128.87,74.22c31.99,35.43 54.64,76.46 72.05,120.65c16.72,42.46 26.37,86.52 29.91,131.92c3.49,44.76 -0.11,89.12 -8.6,133.14c-10.2,52.9 -27.93,103.03 -55.28,149.56c-41.61,70.79 -99.72,123.66 -173.89,158.78c-15.92,7.54 -32.24,14.23 -48.48,21.07c-5.79,2.44 -9.37,6.14 -9.74,12.55c-0.3,5.32 -0.4,10.65 -0.88,15.95c-1.06,11.67 -9.79,18.39 -20.08,15.65c-6.22,-1.65 -9.88,-6.13 -10.2,-12.58c-0.11,-2.33 -0.02,-4.66 -0.08,-6.99c-0.18,-6.58 -2.57,-8.18 -8.86,-6.72c-17.81,4.14 -35.56,8.66 -53.53,11.98c-52.13,9.64 -104.08,7.1 -155.75,-3.75c-12.85,-2.7 -25.58,-5.99 -38.36,-9.08c-6.03,-1.46 -8.94,-0.19 -11.67,5.46c-2.24,4.64 -4.08,9.51 -6.64,13.97c-3.56,6.22 -10.21,9.14 -16.45,7.84c-7.21,-1.5 -11.88,-5.98 -12.39,-13.09c-0.23,-3.32 0.99,-6.82 1.96,-10.12c1.08,-3.66 2.77,-7.14 3.93,-10.78c1.67,-5.24 0.2,-8.06 -4.71,-10.45c-13,-6.33 -25.98,-12.72 -38.92,-19.16c-5.43,-2.71 -7.86,-2.09 -11.03,3.28c-2.37,4.01 -4.47,8.19 -7.05,12.05c-3.66,5.48 -8.72,8.81 -15.61,7.64c-7.07,-1.2 -11.97,-5.36 -13.16,-12.5c-0.5,-3.01 0.51,-6.52 1.64,-9.5c2.06,-5.42 4.75,-10.6 7.11,-15.91c2.66,-5.98 1.86,-8.93 -3.43,-12.83c-59.1,-43.58 -101.16,-100.41 -130.05,-167.42c-16.56,-38.39 -27.32,-78.43 -33.03,-119.8c-4.29,-31.08 -5.26,-62.35 -2.81,-93.63c5.45,-69.59 25.89,-134.48 60.87,-194.97c10.46,-18.08 19.83,-36.9 28.21,-56.03c8.44,-19.26 11.54,-40.14 14.54,-60.91c2.42,-16.74 4.37,-33.66 11.73,-49.24c5.04,-10.66 12.42,-18.85 24.29,-22.03c14.09,-3.77 25.94,1.38 35.32,11.06c8.73,9.01 15.78,19.65 23.66,29.49c5.29,6.61 10.32,13.5 16.24,19.51c6.67,6.76 15.34,10.35 24.9,9.46c16.7,-1.55 33.33,-3.86 49.99,-5.82c21.3,-2.51 42.61,-5.01 63.92,-7.45c4.96,-0.57 9.96,-0.74 14.91,-1.31c18.53,-2.12 28.44,-11.42 33.8,-30.91c3.74,-13.6 7.18,-27.36 12.25,-40.47c2.84,-7.36 7.72,-14.59 13.44,-20.03c11.36,-10.83 28.18,-9.76 40.81,0.97c12.45,10.58 20.67,24.26 28.25,38.36c9.92,18.46 19.19,37.28 29.4,55.58c13.36,23.94 30.41,45.27 48.34,65.94c16.9,19.48 34.2,38.68 46.38,61.72c12.4,23.45 19.56,48.36 19.97,74.93c0.23,14.91 -2.02,29.56 -8.8,43.11c-7.69,15.38 -22.61,23.46 -37.43,20.47c-17.04,-3.43 -25.22,-19.06 -23.09,-33.95c1.43,-10 4.35,-19.79 6.03,-29.76c4,-23.63 -0.58,-45.97 -10.99,-67.28c-10.75,-22 -25.35,-41.38 -41.33,-59.77c-15.39,-17.72 -30.93,-35.31 -46.48,-52.89c-2.75,-3.11 -5.77,-6.01 -8.92,-8.71c-11.34,-9.7 -22.85,-8.01 -30.4,4.85c-5.94,10.12 -14.62,14.58 -26.01,14.47c-3.66,-0.03 -7.32,-0.26 -10.98,-0.43c-14.62,-0.68 -29.23,-1.81 -43.86,-1.97c-33.98,-0.36 -67.29,4.87 -100.08,13.48c-13.3,3.5 -26.43,7.67 -39.57,11.73c-13.49,4.17 -25.05,1.49 -35.16,-8.55c-10.41,-10.33 -20.79,-9.39 -29.25,2.54c-3.25,4.58 -5.83,9.66 -8.56,14.59c-14.22,25.74 -28.73,51.32 -42.46,77.31c-11.81,22.37 -19.21,45.96 -16.42,71.84c1.87,17.33 8.33,32.89 18.27,46.86c18.8,26.39 38.09,52.43 57.28,78.55c4.92,6.69 10.16,13.15 15.31,19.67c1.54,1.96 3.2,3.84 4.93,5.64c11.8,12.26 24.83,12.85 37.23,1.2c23.18,-21.78 40.71,-47.25 50.97,-77.66c2.61,-7.75 6.7,-15.31 11.51,-21.95c9.58,-13.21 27.21,-18.59 41.28,-13.77c15.02,5.15 23.74,20.92 20.72,36.55c-3.01,15.58 -11.08,28.44 -21.03,40.22c-17.18,20.34 -35.16,40.02 -51.96,60.66c-11.42,14.03 -22,28.84 -31.83,44.04c-6.74,10.42 -9.55,22.71 -9.66,35.23c-0.18,19.77 -0.47,39.58 0.35,59.32c0.73,17.68 3.28,35.42 13.15,50.62c5.91,9.1 13.39,17.33 21,25.14c8.43,8.65 17.02,16.89 19.99,29.19c4.01,16.58 -7.39,32.71 -24.39,34.45c-23.81,2.43 -41.24,-9.24 -55.83,-26.08c-19.99,-23.07 -26.15,-51.21 -26.92,-80.68c-0.68,-26.12 -0.27,-52.27 -0.02,-78.4c0.22,-22.89 -6.05,-43.23 -19.9,-61.82c-23.36,-31.35 -47.24,-62.24 -73.48,-91.25c-2.88,-3.19 -6.07,-6.27 -9.62,-8.64c-7.46,-4.97 -15.35,-2.26 -17.66,6.36c-1.57,5.88 -2.21,12.13 -2.35,18.24c-0.77,33.6 2.75,66.77 10.18,99.58c9.42,41.61 24.24,81.15 45.01,118.36c25.56,45.8 57.56,86.24 100.59,117.11c32.74,23.49 69.03,39.07 108.04,48.8c29.22,7.28 58.92,10.85 88.93,11.43c28.52,0.54 56.85,-2.04 84.72,-8.49c0.81,-0.19 1.61,-0.42 2.42,-0.63c3.8,-0.98 7.59,-2.14 8.47,-6.66c0.89,-4.59 -2.25,-6.94 -5.55,-9.13c-27.39,-18.12 -40.38,-45.13 -46.32,-76.18c-6.21,-32.46 -4.44,-65.31 -3.47,-98.07c1.02,-34.26 2.4,-68.51 3.27,-102.78c0.43,-16.96 0.34,-33.95 -0.11,-50.9c-0.14,-5.18 -1.63,-10.54 -3.55,-15.41c-3.86,-9.78 -11.97,-14.08 -22.08,-13.98c-8.28,0.08 -16.55,1.59 -24.84,1.76c-7.58,0.16 -15.43,0.45 -22.69,-1.29c-9.16,-2.19 -15.17,-8.82 -16.45,-18.62c-1.35,-10.32 2.53,-18.77 10.79,-24.77c10.3,-7.47 22.5,-9.67 34.84,-10.68c44.55,-3.66 89.17,-3.13 133.75,-1.03c13.67,0.64 27.59,1.3 40.04,8.66c11.34,6.7 16.57,17.59 13.63,29.8c-2.61,10.85 -12.53,18.45 -25.39,18.49c-8.45,0.02 -16.89,-1.18 -25.35,-1.62c-7.3,-0.38 -14.65,-1.05 -21.91,-0.56c-12.01,0.81 -20.64,9.7 -22.37,23.04c-1.19,9.21 -1.72,18.55 -1.83,27.84c-0.26,21.64 -0.08,43.29 -0.08,64.94c0.26,0 0.52,0 0.77,0l0.02,0.04z" stroke-width="0px" fill="#036099" id="svg_2"/>
  <path class="cls-1" d="m925.54,677.8c-0.49,-11.25 -1.2,-33.54 -2.59,-55.8c-0.41,-6.54 -2.11,-13.17 -4.29,-19.38c-3.2,-9.11 -9.65,-15.55 -18.39,-20.06c-9.23,-4.76 -14.5,-12.76 -14.53,-23.3c-0.04,-10.93 6.17,-18.29 15.37,-23.3c2.74,-1.49 5.78,-2.67 8.82,-3.34c23.89,-5.3 47.81,-5.55 71.57,0.71c8.1,2.14 14.9,6.61 19.08,14.22c6.15,11.19 3.45,25.09 -7.74,33.34c-12.52,9.23 -17.15,21.81 -17.32,36.36c-0.37,31.13 0.48,62.3 -0.41,93.41c-1.32,45.71 -9.69,89.98 -32.7,130.27c-15.15,26.53 -35.63,47.9 -65.17,58.13c-26.67,9.24 -52.9,8.29 -76.11,-9.84c-23.48,-18.34 -30.96,-57.58 -16.29,-81.43c8.75,-14.21 26.26,-18.33 38.77,-9.11c6.53,4.81 9.35,11.59 9.76,19.38c0.22,4.12 -0.17,8.31 -0.62,12.44c-1.89,17.18 10.86,28.31 27.81,24.59c13.61,-2.99 23.61,-11.11 32,-21.56c12.08,-15.06 18.98,-32.62 23.78,-51.09c7.99,-30.71 9.26,-62.08 9.2,-104.63l0,-0.01z" fill="#046199" stroke-width="0px" id="svg_3"/>
  <path class="cls-6" d="m576.63,422.17c4.24,0.5 7.56,0.7 10.81,1.33c4.48,0.87 8.92,3.09 9.29,7.76c0.28,3.48 -1.25,8.07 -3.64,10.59c-4.12,4.34 -8.03,8.08 -5.61,14.62c2.4,6.49 7.41,9.73 14.01,10.39c6.75,0.67 11.94,-2.3 15.55,-7.97c3.92,-6.14 8.46,-7.87 13.56,-5c4.65,2.62 6.19,8.53 3.11,14.44c-5.51,10.6 -14.77,15.98 -26.39,17.26c-9.23,1.02 -17.97,-0.83 -25.41,-6.66c-3.06,-2.4 -5.07,-2.14 -8.12,0.22c-14.01,10.87 -35.55,9.66 -47.02,-2.65c-2.52,-2.7 -4.39,-6.26 -5.73,-9.75c-1.71,-4.42 0.73,-9.44 4.74,-11.41c4.17,-2.05 8.96,-0.79 11.66,3.61c3.64,5.93 8.6,9.07 15.63,8.79c7.35,-0.29 13.9,-5.68 15.1,-12.89c0.62,-3.72 0.08,-7.28 -3.63,-9.59c-1.54,-0.96 -2.99,-2.14 -4.25,-3.44c-6.03,-6.21 -4.17,-14.72 4.04,-17.35c4.21,-1.35 8.75,-1.67 12.32,-2.32l-0.02,0.02z" stroke-width="0px" fill="#08629a" id="svg_4"/>
  <path class="cls-5" d="m202.9,452.51c-4.13,0.44 -8.25,0.84 -12.38,1.32c-6.65,0.77 -12.51,-2.41 -14.5,-7.93c-2.5,-6.91 -0.44,-13.83 5.46,-17.5c6.91,-4.3 14.68,-5.04 22.57,-4.78c12.58,0.41 24.17,4.07 34.5,11.33c5.11,3.59 7.16,8.74 5.76,14.82c-1.93,8.41 -10.34,12.16 -18.87,8.23c-7.2,-3.32 -14.42,-6.01 -22.53,-5.49l-0.01,0z" stroke-width="0px" fill="#076199" id="svg_5"/>
  <path class="cls-3" d="m471.63,410.17c1.59,-6.57 2.65,-13.49 5.01,-19.93c2.22,-6.06 6.96,-10.24 13.94,-10.27c7.14,-0.03 11.89,4.18 14.5,10.32c5.7,13.42 5.88,27.15 0.29,40.66c-2.57,6.21 -7.24,10.49 -14.44,10.4c-7.32,-0.09 -12.35,-4.17 -14.53,-10.86c-2.09,-6.4 -3.13,-13.13 -4.77,-20.31l0,-0.01z" stroke-width="0px" fill="#07629a" id="svg_6"/>
  <path class="cls-8" d="m681.78,406.84c-1.43,6.61 -2.33,13.04 -4.27,19.13c-2.11,6.61 -6.84,11.12 -14.14,11.47c-7.53,0.36 -12.69,-3.74 -15.32,-10.49c-4.98,-12.79 -5.49,-25.85 -0.66,-38.83c2.56,-6.88 7.35,-11.86 14.99,-11.93c7.45,-0.06 12.42,4.75 14.72,11.46c2.12,6.19 3.16,12.75 4.69,19.2l-0.01,-0.01z" stroke-width="0px" fill="#066199" id="svg_7"/>
  <path class="cls-4" d="m206.81,481.22c2.54,0.31 6.24,0.39 9.73,1.28c6.54,1.66 10.8,7.94 10.09,14.16c-0.82,7.2 -5.53,11.88 -13.11,11.62c-11.93,-0.4 -22.47,3.12 -32.5,9.25c-7.35,4.49 -16.12,2.89 -20.01,-3.14c-4.17,-6.45 -2.46,-15.11 4.53,-20.29c11.88,-8.8 25.56,-12.29 41.27,-12.88z" stroke-width="0px" fill="#07619a" id="svg_8"/>
  <path class="cls-7" d="m928.78,471.97c-2,-0.33 -5.1,-0.92 -8.22,-1.36c-8.57,-1.2 -16.89,-0.19 -25.04,2.74c-7.29,2.62 -14.34,0.29 -16.85,-5.33c-2.98,-6.66 -0.17,-13.78 7.17,-17.34c13.67,-6.63 28.03,-9.37 43.16,-6.91c8.65,1.4 14.01,6.3 14.77,13.26c0.95,8.74 -5.11,15.3 -14.99,14.95l0,-0.01z" stroke-width="0px" fill="#08639c" id="svg_9"/>
  <path class="cls-2" d="m919.01,406.48c-0.06,6.51 -3.59,10.92 -10.79,12.23c-9.86,1.79 -18.66,5.49 -26.49,11.82c-5.25,4.25 -10.69,4 -14.91,0.07c-4.89,-4.56 -5.74,-10.57 -1.55,-16.14c6.56,-8.7 15.28,-14.7 25.56,-18.22c6.23,-2.13 12.51,-4.61 19.34,-2.15c5.87,2.12 8.88,6.23 8.83,12.4l0.01,-0.01z" stroke-width="0px" fill="#08629b" id="svg_10"/>
 </g>

</svg>